<svg xmlns="http://www.w3.org/2000/svg" width="72" height="72" viewBox="0 0 72 72">
  <defs>
    <linearGradient id="gradient" x1="0%" y1="0%" x2="100%" y2="100%">
      <stop offset="0%" style="stop-color:#4F46E5;stop-opacity:1" />
      <stop offset="100%" style="stop-color:#7C3AED;stop-opacity:1" />
    </linearGradient>
  </defs>
  
  <!-- Background circle -->
  <circle cx="36" cy="36" r="32" fill="url(#gradient)" stroke="#ffffff" stroke-width="2"/>
  
  <!-- Financial symbol -->
  <g transform="translate(36,36)">
    <!-- Dollar sign -->
    <path d="M-3,-15 L-3,-12 M-3,12 L-3,15 M-8,-8 Q-8,-12 -4,-12 L4,-12 Q8,-12 8,-8 Q8,-4 4,-4 L-4,-4 Q-8,-4 -8,0 Q-8,4 -4,4 L4,4 Q8,4 8,8 Q8,12 4,12 L-4,12 Q-8,12 -8,8" 
          stroke="#ffffff" stroke-width="2.5" fill="none" stroke-linecap="round" stroke-linejoin="round"/>
  </g>
  
  <!-- Decorative elements -->
  <circle cx="18" cy="18" r="1.5" fill="#ffffff" opacity="0.6"/>
  <circle cx="54" cy="18" r="1" fill="#ffffff" opacity="0.4"/>
  <circle cx="18" cy="54" r="1" fill="#ffffff" opacity="0.4"/>
  <circle cx="54" cy="54" r="1.5" fill="#ffffff" opacity="0.6"/>
</svg>