<svg xmlns="http://www.w3.org/2000/svg" width="96" height="96" viewBox="0 0 96 96">
  <defs>
    <linearGradient id="gradient" x1="0%" y1="0%" x2="100%" y2="100%">
      <stop offset="0%" style="stop-color:#4F46E5;stop-opacity:1" />
      <stop offset="100%" style="stop-color:#7C3AED;stop-opacity:1" />
    </linearGradient>
  </defs>
  
  <!-- Background circle -->
  <circle cx="48" cy="48" r="42" fill="url(#gradient)" stroke="#ffffff" stroke-width="3"/>
  
  <!-- Financial symbol -->
  <g transform="translate(48,48)">
    <!-- Dollar sign -->
    <path d="M-4,-20 L-4,-15 M-4,15 L-4,20 M-10,-10 Q-10,-15 -5,-15 L5,-15 Q10,-15 10,-10 Q10,-5 5,-5 L-5,-5 Q-10,-5 -10,0 Q-10,5 -5,5 L5,5 Q10,5 10,10 Q10,15 5,15 L-5,15 Q-10,15 -10,10" 
          stroke="#ffffff" stroke-width="3" fill="none" stroke-linecap="round" stroke-linejoin="round"/>
  </g>
  
  <!-- Decorative elements -->
  <circle cx="24" cy="24" r="2" fill="#ffffff" opacity="0.6"/>
  <circle cx="72" cy="24" r="1.5" fill="#ffffff" opacity="0.4"/>
  <circle cx="24" cy="72" r="1.5" fill="#ffffff" opacity="0.4"/>
  <circle cx="72" cy="72" r="2" fill="#ffffff" opacity="0.6"/>
</svg>