<svg xmlns="http://www.w3.org/2000/svg" width="512" height="512" viewBox="0 0 512 512">
  <defs>
    <linearGradient id="gradient" x1="0%" y1="0%" x2="100%" y2="100%">
      <stop offset="0%" style="stop-color:#4F46E5;stop-opacity:1" />
      <stop offset="100%" style="stop-color:#7C3AED;stop-opacity:1" />
    </linearGradient>
  </defs>
  
  <!-- Background circle -->
  <circle cx="256" cy="256" r="240" fill="url(#gradient)" stroke="#ffffff" stroke-width="8"/>
  
  <!-- Financial symbol -->
  <g transform="translate(256,256)">
    <!-- Dollar sign -->
    <path d="M-20,-100 L-20,-80 M-20,80 L-20,100 M-50,-50 Q-50,-80 -25,-80 L25,-80 Q50,-80 50,-50 Q50,-25 25,-25 L-25,-25 Q-50,-25 -50,0 Q-50,25 -25,25 L25,25 Q50,25 50,50 Q50,80 25,80 L-25,80 Q-50,80 -50,50" 
          stroke="#ffffff" stroke-width="16" fill="none" stroke-linecap="round" stroke-linejoin="round"/>
  </g>
  
  <!-- Decorative elements -->
  <circle cx="128" cy="128" r="12" fill="#ffffff" opacity="0.6"/>
  <circle cx="384" cy="128" r="8" fill="#ffffff" opacity="0.4"/>
  <circle cx="128" cy="384" r="8" fill="#ffffff" opacity="0.4"/>
  <circle cx="384" cy="384" r="12" fill="#ffffff" opacity="0.6"/>
  
  <!-- Additional decorative dots -->
  <circle cx="80" cy="256" r="6" fill="#ffffff" opacity="0.3"/>
  <circle cx="432" cy="256" r="6" fill="#ffffff" opacity="0.3"/>
  <circle cx="256" cy="80" r="6" fill="#ffffff" opacity="0.3"/>
  <circle cx="256" cy="432" r="6" fill="#ffffff" opacity="0.3"/>
</svg>